HIERARCHY
ROOT hip
{
  OFFSET 0 0 0
  CHANNELS 6 Xposition Yposition Zposition Zrotation Yrotation Xrotation
  JOINT abdomen
  {
    OFFSET 0 20.6881 -0.73152
    CHANNELS 3 Zrotation Xrotation Yrotation
    JOINT chest
    {
      OFFSET 0 11.7043 -0.48768
      CHANNELS 3 Zrotation Xrotation Yrotation
      JOINT neck
      {
        OFFSET 0 22.1894 -2.19456
        CHANNELS 3 Zrotation Xrotation Yrotation
        JOINT head
        {
          OFFSET -0.24384 7.07133 1.2192
          CHANNELS 3 Zrotation Xrotation Yrotation
          JOINT leftEye
          {
            OFFSET 4.14528 8.04674 8.04672
            CHANNELS 3 Zrotation Xrotation Yrotation
            End Site
            {
              OFFSET 1 0 0
            }
          }
          JOINT rightEye
          {
            OFFSET -3.6576 8.04674 8.04672
            CHANNELS 3 Zrotation Xrotation Yrotation
            End Site
            {
              OFFSET 1 0 0
            }
          }
        }
      }
      JOINT rCollar
      {
        OFFSET -2.68224 19.2634 -4.8768
        CHANNELS 3 Zrotation Xrotation Yrotation
        JOINT rShldr
        {
          OFFSET -8.77824 -1.95073 1.46304
          CHANNELS 3 Zrotation Xrotation Yrotation
          JOINT rForeArm
          {
            OFFSET -28.1742 -1.7115 0.48768
            CHANNELS 3 Zrotation Xrotation Yrotation
            JOINT rHand
            {
              OFFSET -22.5879 0.773209 7.07136
              CHANNELS 3 Zrotation Xrotation Yrotation
              JOINT rThumb1
              {
                OFFSET -1.2192 -0.487915 3.41376
                CHANNELS 3 Zrotation Xrotation Yrotation
                JOINT rThumb2
                {
                  OFFSET -3.37035 -0.52449 3.41376
                  CHANNELS 3 Zrotation Xrotation Yrotation
                  End Site
                  {
                    OFFSET -1.78271 -1.18214 1.43049
                  }
                }
              }
              JOINT rIndex1
              {
                OFFSET -7.75947 0.938293 5.60832
                CHANNELS 3 Zrotation Xrotation Yrotation
                JOINT rIndex2
                {
                  OFFSET -2.54057 -0.884171 1.56538
                  CHANNELS 3 Zrotation Xrotation Yrotation
                  End Site
                  {
                    OFFSET -1.62519 -0.234802 1.16502
                  }
                }
              }
              JOINT rMid1
              {
                OFFSET -8.24714 1.18213 3.41376
                CHANNELS 3 Zrotation Xrotation Yrotation
                JOINT rMid2
                {
                  OFFSET -3.10165 -0.590103 1.0647
                  CHANNELS 3 Zrotation Xrotation Yrotation
                  End Site
                  {
                    OFFSET -2.48547 -0.328903 0.83742
                  }
                }
              }
              JOINT rRing1
              {
                OFFSET -8.82822 0.546677 1.51678
                CHANNELS 3 Zrotation Xrotation Yrotation
                JOINT rRing2
                {
                  OFFSET -2.60934 -0.819778 -0.0198488
                  CHANNELS 3 Zrotation Xrotation Yrotation
                  End Site
                  {
                    OFFSET -2.33842 -0.294052 0.168128
                  }
                }
              }
              JOINT rPinky1
              {
                OFFSET -8.27202 -0.0477905 -0.4584
                CHANNELS 3 Zrotation Xrotation Yrotation
                JOINT rPinky2
                {
                  OFFSET -1.82734 -0.647385 -0.700984
                  CHANNELS 3 Zrotation Xrotation Yrotation
                  End Site
                  {
                    OFFSET -1.69225 -0.51767 -0.607171
                  }
                }
              }
            }
          }
        }
      }
      JOINT lCollar
      {
        OFFSET 2.68224 19.2634 -4.8768
        CHANNELS 3 Zrotation Xrotation Yrotation
        JOINT lShldr
        {
          OFFSET 8.77824 -1.95073 1.46304
          CHANNELS 3 Zrotation Xrotation Yrotation
          JOINT lForeArm
          {
            OFFSET 28.1742 -1.7115 0.48768
            CHANNELS 3 Zrotation Xrotation Yrotation
            JOINT lHand
            {
              OFFSET 22.5879 0.773209 7.07136
              CHANNELS 3 Zrotation Xrotation Yrotation
              JOINT lThumb1
              {
                OFFSET 1.2192 -0.487915 3.41376
                CHANNELS 3 Zrotation Xrotation Yrotation
                JOINT lThumb2
                {
                  OFFSET 3.37035 -0.52449 3.41376
                  CHANNELS 3 Zrotation Xrotation Yrotation
                  End Site
                  {
                    OFFSET 1.78271 -1.18214 1.43049
                  }
                }
              }
              JOINT lIndex1
              {
                OFFSET 7.75947 0.938293 5.60832
                CHANNELS 3 Zrotation Xrotation Yrotation
                JOINT lIndex2
                {
                  OFFSET 2.54057 -0.884171 1.56538
                  CHANNELS 3 Zrotation Xrotation Yrotation
                  End Site
                  {
                    OFFSET 1.62519 -0.234802 1.16502
                  }
                }
              }
              JOINT lMid1
              {
                OFFSET 8.24714 1.18213 3.41376
                CHANNELS 3 Zrotation Xrotation Yrotation
                JOINT lMid2
                {
                  OFFSET 3.10165 -0.590103 1.0647
                  CHANNELS 3 Zrotation Xrotation Yrotation
                  End Site
                  {
                    OFFSET 2.48547 -0.328903 0.83742
                  }
                }
              }
              JOINT lRing1
              {
                OFFSET 8.82822 0.546677 1.51678
                CHANNELS 3 Zrotation Xrotation Yrotation
                JOINT lRing2
                {
                  OFFSET 2.60934 -0.819778 -0.0198488
                  CHANNELS 3 Zrotation Xrotation Yrotation
                  End Site
                  {
                    OFFSET 2.33842 -0.294052 0.168128
                  }
                }
              }
              JOINT lPinky1
              {
                OFFSET 8.27202 -0.0477905 -0.4584
                CHANNELS 3 Zrotation Xrotation Yrotation
                JOINT lPinky2
                {
                  OFFSET 1.82734 -0.647385 -0.700984
                  CHANNELS 3 Zrotation Xrotation Yrotation
                  End Site
                  {
                    OFFSET 1.69225 -0.51767 -0.607171
                  }
                }
              }
            }
          }
        }
      }
    }
  }
  JOINT rButtock
  {
    OFFSET -8.77824 4.35084 1.2192
    CHANNELS 3 Zrotation Xrotation Yrotation
    JOINT rThigh
    {
      OFFSET 0 -1.70687 -2.19456
      CHANNELS 3 Zrotation Xrotation Yrotation
      JOINT rShin
      {
        OFFSET 0 -36.8199 0.73152
        CHANNELS 3 Zrotation Xrotation Yrotation
        JOINT rFoot
        {
          OFFSET 0.73152 -45.1104 -5.12064
          CHANNELS 3 Zrotation Xrotation Yrotation
          End Site
          {
            OFFSET -1.1221 -3.69964 12.103
          }
        }
      }
    }
  }
  JOINT lButtock
  {
    OFFSET 8.77824 4.35084 1.2192
    CHANNELS 3 Zrotation Xrotation Yrotation
    JOINT lThigh
    {
      OFFSET 0 -1.70687 -2.19456
      CHANNELS 3 Zrotation Xrotation Yrotation
      JOINT lShin
      {
        OFFSET 0 -36.8199 0.73152
        CHANNELS 3 Zrotation Xrotation Yrotation
        JOINT lFoot
        {
          OFFSET -0.73152 -45.1104 -5.12064
          CHANNELS 3 Zrotation Xrotation Yrotation
          End Site
          {
            OFFSET 1.1221 -3.69964 12.103
          }
        }
      }
    }
  }
}
MOTION
Frames:	4
Frame Time:	0.03333
-0.030304055243465636 35.66188273221354 -0.03743251824092431 -2.9893624782562256 6.9471940994262695 5.312874794006348 -2.4972639083862305 14.843505859375 4.05748176574707 2.8447091579437256 -9.790340423583984 1.2880960702896118 -5.098905563354492 15.573700904846191 -3.8515472412109375 9.278188705444336 -26.463884353637695 -5.2740654945373535 -0.0978211909532547 -0.0017297486774623394 -0.13048788905143738 0.03358783572912216 -0.01143550593405962 0.007648183032870293 0.015437927097082138 0.030444853007793427 0.034211788326501846 46.56673812866211 35.561988830566406 17.062728881835938 -28.18602752685547 -31.744129180908203 63.00388717651367 -1.4103716611862183 -10.404619216918945 -1.5766820907592773 -0.03300968185067177 0.11621805280447006 -0.04216070473194122 -0.0011094583896920085 -0.01252906583249569 -0.01222772616893053 0.07637719064950943 -0.12251228094100952 -0.14848102629184723 7.829033851623535 5.5477519035339355 0.39184871315956116 0.030395854264497757 -0.0017842348897829652 -0.024080513045191765 2.9254696369171143 1.0121017694473267 -0.06643503904342651 0.011671480722725391 0.10822180658578873 0.03246932849287987 10.472318649291992 0.710148274898529 0.0027591148391366005 -0.1500508040189743 -0.039028313010931015 0.02779749035835266 2.2742652893066406 -0.8261297941207886 -0.3424184024333954 0.022980477660894394 -0.10463545471429825 -0.09348265081644058 -52.569862365722656 39.95582962036133 -29.117204666137695 27.962072372436523 -30.616456985473633 -59.22850036621094 1.9454715251922607 -12.816295623779297 2.062661647796631 -0.072394959628582 0.025824526324868202 -0.06080903857946396 -0.010116694495081902 0.051390551030635834 0.07613187283277512 0.15716950595378876 0.060231760144233704 0.11062681674957275 -7.817992210388184 5.490354537963867 -0.3479200601577759 -0.05288862809538841 0.047779787331819534 -0.0512738935649395 -2.9019582271575928 0.9789412617683411 0.06661254167556763 0.041572678834199905 -0.017176533117890358 0.005629238672554493 -10.508077621459961 0.7408176064491272 -0.023571770638227463 0.025141600519418716 -0.005715153180062771 -0.09282290935516357 -2.2684173583984375 -0.7716528177261353 0.21147571504116058 0.04534536227583885 -0.10132323950529099 0.04803742468357086 -27.424575805664062 -38.21431350708008 -23.55917739868164 -1.4308016300201416 64.89978790283203 2.6080334186553955 -4.6781392097473145 -10.736441612243652 -10.239114761352539 0.008790970779955387 -0.05807493254542351 -0.014960099942982197 33.41472625732422 -37.58198165893555 26.57195281982422 1.8049036264419556 66.05667877197266 -2.848895788192749 5.245474338531494 -10.59575080871582 14.257286071777344
0.018890809140374328 35.745146153290584 0.24497093778165585 -3.199772834777832 7.277345657348633 4.2363600730896 -2.31422758102417 14.84171199798584 3.5527217388153076 2.581279754638672 -9.58653450012207 0.9614191651344299 -5.1966423988342285 15.52099609375 -3.3921711444854736 9.164251327514648 -25.620939254760742 -4.975653648376465 0.16945619881153107 -0.014376882463693619 0.17585057020187378 0.08206254988908768 -0.10460694879293442 0.007586515508592129 -0.0022689553443342447 -0.10302397608757019 -0.06244173273444176 46.04502487182617 36.42718505859375 18.445663452148438 -28.069416046142578 -32.38862609863281 62.65736389160156 -1.7416237592697144 -11.453533172607422 -1.5776413679122925 0.05251876264810562 -0.22302258014678955 0.12135186791419983 0.037613268941640854 -0.02760891802608967 0.008702132850885391 -0.25187721848487854 0.1695430427789688 0.15918155014514923 7.47985315322876 5.457797527313232 0.4884639382362366 -0.07465963810682297 -0.10170981287956238 0.10796160250902176 2.761915683746338 0.8901168704032898 0.2549365162849426 -0.06284164637327194 -0.17157363891601562 -0.10347645729780197 10.126965522766113 0.6553290486335754 -0.0741138830780983 0.28922155499458313 0.08429642021656036 0.04361386597156525 2.1842029094696045 -0.6285400986671448 -0.118169866502285 -0.037762630730867386 0.11490315943956375 0.08761196583509445 -51.659385681152344 38.70685577392578 -30.281164169311523 27.271587371826172 -30.500967025756836 -59.35470962524414 1.9497655630111694 -14.442577362060547 1.8891819715499878 0.031547270715236664 0.05045070871710777 -0.0008553472580388188 0.1306842416524887 -0.004709394183009863 -0.11706312745809555 -0.2516195774078369 -0.14583319425582886 -0.13235870003700256 -7.606811046600342 5.41740083694458 -0.49058449268341064 0.1162981167435646 -0.011213799938559532 0.18317030370235443 -2.8268144130706787 0.9476750493049622 -0.17312780022621155 -0.08380112051963806 0.04755328223109245 -0.0152680529281497 -9.987643241882324 0.6438579559326172 -0.020552515983581543 -0.0029443774838000536 0.055688757449388504 0.14067329466342926 -2.2278120517730713 -0.6823224425315857 0.08782165497541428 -0.06260959804058075 0.20427429676055908 -0.09687044471502304 -28.168134689331055 -39.16941833496094 -23.39571189880371 -2.026585817337036 65.4975357055664 2.863818883895874 -4.763350486755371 -10.366881370544434 -10.268475532531738 -0.10881517082452774 0.07726456224918365 -0.051071055233478546 33.31483840942383 -38.15952682495117 26.333669662475586 1.6059461832046509 66.20722961425781 -2.892629623413086 4.845616817474365 -10.362220764160156 13.390525817871094
-0.013815551700231729 34.60435429773671 0.5419312878336786 -8.57893180847168 -43.6508674621582 8.911853790283203 3.321641445159912 16.52631950378418 8.990729331970215 -1.137835144996643 -10.029858589172363 2.0581486225128174 -0.45486998558044434 12.89937686920166 7.62047815322876 3.6229379177093506 -23.484127044677734 16.266809463500977 0.15721282362937927 0.3334963619709015 0.0968354120850563 0.3894393742084503 0.10381516069173813 0.14417783915996552 -0.11020275205373764 -0.21324428915977478 -0.4011850357055664 74.1895751953125 67.44959259033203 -11.140798568725586 -26.6063289642334 -42.63521957397461 90.58504486083984 -5.773570537567139 -50.32477569580078 -10.479281425476074 0.07289426773786545 -0.05179418623447418 0.2396339476108551 -0.13933086395263672 0.31059759855270386 -0.1556897759437561 0.1581205278635025 -0.11259299516677856 0.44987753033638 7.851960182189941 5.71212911605835 0.5071293115615845 0.1876637488603592 -0.5141059160232544 0.4463600814342499 2.649104595184326 1.407647967338562 0.6557356715202332 -0.06625104695558548 0.06289801746606827 0.09191668033599854 10.07495403289795 0.565191924571991 -0.1767652928829193 0.04731236770749092 -0.04534769803285599 -0.02924845926463604 2.294178009033203 -1.10137939453125 -0.3606770634651184 0.5308610200881958 -0.2073427140712738 -0.12840193510055542 -51.22587966918945 9.248285293579102 -45.81272888183594 26.727766036987305 -29.103906631469727 -53.606834411621094 1.2541828155517578 12.87928581237793 -1.7780174016952515 -0.49094676971435547 0.2770233750343323 -0.47943058609962463 0.23898302018642426 0.17961497604846954 -0.18075449764728546 -0.31881123781204224 -0.19091127812862396 0.008199730888009071 -7.529524803161621 5.436346530914307 -0.12962698936462402 -0.06336653977632523 -0.09211663156747818 0.6114165782928467 -2.9818649291992188 0.8687254786491394 -0.09768982976675034 -0.2409791499376297 0.4366573691368103 0.01963793858885765 -10.636305809020996 0.42558690905570984 0.49799662828445435 0.035800740122795105 0.3907313942909241 -0.1619569957256317 -2.425821304321289 -0.4728729724884033 0.048934150487184525 -0.34983453154563904 -0.05756361782550812 -0.09551244229078293 -17.398569107055664 -21.077550888061523 -17.35952377319336 -2.174633741378784 64.24378204345703 4.18680477142334 -9.74817180633545 -21.93044662475586 -24.510976791381836 -0.19666054844856262 -0.1791287064552307 -0.4428304433822632 70.88610076904297 -52.87408447265625 60.22063446044922 2.638047456741333 80.48125457763672 -2.388791561126709 -0.3068119287490845 -1.6975178718566895 -0.050916820764541626
0.16868656931398007 34.34250875062052 0.40332130978750425 76.06757354736328 -87.0593490600586 79.3176498413086 1.1404008865356445 14.748970031738281 14.123115539550781 -3.085088014602661 -11.46367359161377 4.156293869018555 1.082352876663208 11.607063293457031 12.829513549804688 2.2602577209472656 -20.18524742126465 25.368080139160156 0.8394308686256409 0.22264790534973145 0.30109983682632446 0.3843657970428467 0.2825612425804138 -0.11560200154781342 -0.03581901267170906 0.5222746133804321 0.007547242566943169 89.99279022216797 80.96886444091797 -24.844266891479492 -23.41460418701172 -46.196563720703125 103.41352844238281 -16.28676414489746 -71.87015533447266 -24.02735137939453 -0.2817877233028412 -0.2583557367324829 -0.04529256746172905 -0.21337153017520905 0.4286499619483948 -0.20309537649154663 -0.09833663702011108 0.2596612274646759 0.7187331318855286 7.899413108825684 5.6459550857543945 0.894457221031189 -0.34738102555274963 -0.4252965748310089 -0.05949941650032997 3.032188653945923 0.5147221684455872 0.5231322050094604 0.36209988594055176 -0.3558519780635834 -0.3507029116153717 9.816407203674316 0.13644717633724213 -0.643065333366394 0.5542953014373779 -0.09497538954019547 -0.6870276927947998 2.2745354175567627 -0.8933395147323608 0.2123245894908905 0.045001156628131866 -0.20184603333473206 -0.6977880001068115 -62.38570022583008 -1.5809675455093384 -42.4989128112793 29.008352279663086 -33.58427429199219 -65.23076629638672 1.3418614864349365 18.267297744750977 -2.102571487426758 0.4134613871574402 0.8258000016212463 -0.6982056498527527 -0.44565895199775696 0.4395701289176941 -0.2514283359050751 -0.7157411575317383 -0.3086321949958801 0.00902082584798336 -7.6665778160095215 5.109049320220947 -0.1053563579916954 -0.12687505781650543 -0.6385059356689453 0.5708297491073608 -2.623033046722412 0.8429670929908752 -0.046301670372486115 -0.9168519973754883 0.5208672285079956 0.35448166728019714 -10.531630516052246 0.13485689461231232 0.14174817502498627 -0.34427782893180847 -0.10401014238595963 0.819678544998169 -2.490548849105835 -0.8033318519592285 0.289822518825531 -0.6022939682006836 -0.2984321415424347 1.0943909883499146 -19.353404998779297 -25.804519653320312 -23.454565048217773 -4.956989288330078 76.10701751708984 7.0008039474487305 -13.183094024658203 -26.671369552612305 -25.132360458374023 0.39219436049461365 0.15758568048477173 -0.33517321944236755 77.64837646484375 -49.4449348449707 68.41167449951172 3.6086137294769287 79.35034942626953 -3.217930793762207 -0.7473618984222412 1.9931995868682861 -3.7839176654815674
